<?xml version="1.0" standalone="no"?><!DOCTYPE svg PUBLIC "-//W3C//DTD SVG 1.1//EN" "http://www.w3.org/Graphics/SVG/1.1/DTD/svg11.dtd"><svg class="icon" viewBox="0 0 1024 1024" version="1.1" xmlns="http://www.w3.org/2000/svg"><path d="M 832.353 191.642 C 746.829 106.004 633.027 58.88 512 58.88 s -234.829 47.1245 -320.43 132.762 A 450.058 450.058 0 0 0 58.88 512 c 0 88.2125 25.3747 173.701 73.2877 247.214 a 31.5341 31.5341 0 1 0 52.7923 -34.432 A 388.48 388.48 0 0 1 121.938 512 c 0 -215.081 174.94 -390.062 390.062 -390.062 c 215.04 0 390.062 174.981 390.062 390.062 c 0 215.081 -175.022 390.098 -390.062 390.098 c -71.255 0 -140.918 -19.3741 -201.487 -56.0026 a 31.5392 31.5392 0 0 0 -32.6656 53.9187 A 452.316 452.316 0 0 0 512 965.12 c 121.021 0 234.829 -47.1245 320.353 -132.726 C 918.001 746.829 965.12 633.027 965.12 512 c 0 -121.021 -47.1194 -234.829 -132.767 -320.358 Z M 672.86 477.865 c 19.1846 -20.2752 28.8512 -47.5034 28.8512 -81.4848 a 130.35 130.35 0 0 0 -8.57088 -47.1245 a 115.681 115.681 0 0 0 -63.063 -64.8704 a 133.668 133.668 0 0 0 -39.8285 -10.8749 a 460.083 460.083 0 0 0 -53.1763 -2.75968 H 386.867 c -19.9014 0 -35.4202 4.608 -44.329 13.5219 c -8.87296 8.91392 -14.3872 23.4496 -14.3872 43.351 v 350.899 c 0 18.4269 5.09952 32.4352 13.2198 41.9891 c 8.04352 9.51808 19.9731 14.3104 34.7392 14.3104 c 13.6294 0 24.3917 -4.57216 32.8858 -13.6704 c 8.45824 -9.13408 12.3853 -23.337 12.3853 -42.6291 v -147.717 h 33.6435 c 16.3891 0 29.9418 2.75456 40.704 7.13728 c 10.7622 4.34688 21.3709 12.7232 31.9488 24.5453 c 10.3782 11.8221 22.2771 29.1482 35.5277 51.7683 l 37.0074 61.6602 c 8.76032 14.5357 15.6314 25.5642 20.7309 33.0394 c 5.0944 7.43936 11.136 13.6294 18.2016 18.5037 c 7.02464 4.86912 15.7082 7.3216 26.0915 7.3216 c 8.68864 0 16.3891 -1.73568 22.999 -5.13024 c 6.64576 -3.43552 11.8528 -8.1152 15.7082 -14.0083 c 3.85024 -5.888 5.7344 -11.8528 5.7344 -17.8944 c 0 -5.78048 -3.2512 -16.4659 -9.81504 -31.9078 a 394.214 394.214 0 0 0 -27.3818 -51.9219 a 385.096 385.096 0 0 0 -39.9872 -54.2976 c -14.9146 -16.9933 -30.6227 -29.8291 -46.976 -38.5536 c 39.0861 -8.42752 68.1626 -22.8506 87.3421 -43.2026 Z m -76.7642 -37.4579 c -8.04352 9.21088 -19.6352 15.104 -34.7392 18.9901 c -15.104 3.8144 -33.7971 5.13536 -55.9616 5.13536 H 421.453 V 340.157 h 86.4358 c 31.7184 0 52.9357 2.3808 63.7338 6.94784 c 11.4432 4.79744 20.3622 12.0064 26.7725 21.673 c 6.4256 9.66656 9.66656 20.8435 9.66656 33.495 c -0.04096 16.1229 -4.00384 28.8819 -11.9654 38.1338 Z"  /><path d="M 832.353 191.642 C 746.829 106.004 633.027 58.88 512 58.88 s -234.829 47.1245 -320.43 132.762 A 450.058 450.058 0 0 0 58.88 512 c 0 88.2125 25.3747 173.701 73.2877 247.214 a 31.5341 31.5341 0 1 0 52.7923 -34.432 A 388.48 388.48 0 0 1 121.938 512 c 0 -215.081 174.94 -390.062 390.062 -390.062 c 215.04 0 390.062 174.981 390.062 390.062 c 0 215.081 -175.022 390.098 -390.062 390.098 c -71.255 0 -140.918 -19.3741 -201.487 -56.0026 a 31.5392 31.5392 0 0 0 -32.6656 53.9187 A 452.316 452.316 0 0 0 512 965.12 c 121.021 0 234.829 -47.1245 320.353 -132.726 C 918.001 746.829 965.12 633.027 965.12 512 c 0 -121.021 -47.1194 -234.829 -132.767 -320.358 Z M 672.86 477.865 c 19.1846 -20.2752 28.8512 -47.5034 28.8512 -81.4848 a 130.35 130.35 0 0 0 -8.57088 -47.1245 a 115.681 115.681 0 0 0 -63.063 -64.8704 a 133.668 133.668 0 0 0 -39.8285 -10.8749 a 460.083 460.083 0 0 0 -53.1763 -2.75968 H 386.867 c -19.9014 0 -35.4202 4.608 -44.329 13.5219 c -8.87296 8.91392 -14.3872 23.4496 -14.3872 43.351 v 350.899 c 0 18.4269 5.09952 32.4352 13.2198 41.9891 c 8.04352 9.51808 19.9731 14.3104 34.7392 14.3104 c 13.6294 0 24.3917 -4.57216 32.8858 -13.6704 c 8.45824 -9.13408 12.3853 -23.337 12.3853 -42.6291 v -147.717 h 33.6435 c 16.3891 0 29.9418 2.75456 40.704 7.13728 c 10.7622 4.34688 21.3709 12.7232 31.9488 24.5453 c 10.3782 11.8221 22.2771 29.1482 35.5277 51.7683 l 37.0074 61.6602 c 8.76032 14.5357 15.6314 25.5642 20.7309 33.0394 c 5.0944 7.43936 11.136 13.6294 18.2016 18.5037 c 7.02464 4.86912 15.7082 7.3216 26.0915 7.3216 c 8.68864 0 16.3891 -1.73568 22.999 -5.13024 c 6.64576 -3.43552 11.8528 -8.1152 15.7082 -14.0083 c 3.85024 -5.888 5.7344 -11.8528 5.7344 -17.8944 c 0 -5.78048 -3.2512 -16.4659 -9.81504 -31.9078 a 394.214 394.214 0 0 0 -27.3818 -51.9219 a 385.096 385.096 0 0 0 -39.9872 -54.2976 c -14.9146 -16.9933 -30.6227 -29.8291 -46.976 -38.5536 c 39.0861 -8.42752 68.1626 -22.8506 87.3421 -43.2026 Z m -76.7642 -37.4579 c -8.04352 9.21088 -19.6352 15.104 -34.7392 18.9901 c -15.104 3.8144 -33.7971 5.13536 -55.9616 5.13536 H 421.453 V 340.157 h 86.4358 c 31.7184 0 52.9357 2.3808 63.7338 6.94784 c 11.4432 4.79744 20.3622 12.0064 26.7725 21.673 c 6.4256 9.66656 9.66656 20.8435 9.66656 33.495 c -0.04096 16.1229 -4.00384 28.8819 -11.9654 38.1338 Z" /></svg>
