<?xml version="1.0" standalone="no"?><!DOCTYPE svg PUBLIC "-//W3C//DTD SVG 1.1//EN" "http://www.w3.org/Graphics/SVG/1.1/DTD/svg11.dtd"><svg class="icon" viewBox="0 0 1024 1024" version="1.1" xmlns="http://www.w3.org/2000/svg"><path d="M 819.2 138.65 H 204.8 c -36.5056 0 -66.1504 29.6448 -66.1504 66.1504 v 614.4 c 0 36.5056 29.6448 66.1504 66.1504 66.1504 h 614.4 c 36.5056 0 66.1504 -29.6448 66.1504 -66.1504 V 204.8 c 0 -36.5056 -29.6448 -66.1504 -66.1504 -66.1504 Z M 204.8 202.65 h 614.4 c 1.1776 0 2.1504 0.9728 2.1504 2.1504 v 614.4 a 2.1504 2.1504 0 0 1 -2.1504 2.1504 H 204.8 A 2.1504 2.1504 0 0 1 202.65 819.2 V 204.8 c 0 -1.1776 0.9728 -2.1504 2.1504 -2.1504 Z"  /><path d="M 819.2 138.65 H 204.8 c -36.5056 0 -66.1504 29.6448 -66.1504 66.1504 v 614.4 c 0 36.5056 29.6448 66.1504 66.1504 66.1504 h 614.4 c 36.5056 0 66.1504 -29.6448 66.1504 -66.1504 V 204.8 c 0 -36.5056 -29.6448 -66.1504 -66.1504 -66.1504 Z M 204.8 202.65 h 614.4 c 1.1776 0 2.1504 0.9728 2.1504 2.1504 v 614.4 a 2.1504 2.1504 0 0 1 -2.1504 2.1504 H 204.8 A 2.1504 2.1504 0 0 1 202.65 819.2 V 204.8 c 0 -1.1776 0.9728 -2.1504 2.1504 -2.1504 Z"  /><path d="M 853.35 480 v 64 H 170.65 v -64 Z" /><path d="M 853.35 480 v 64 H 170.65 v -64 Z" /><path d="M 256 298.65 h 213.35 V 384 H 256 Z M 554.65 298.65 H 768 V 384 h -213.35 Z M 256 640 h 512 v 85.3504 H 256 Z"  /><path d="M 256 298.65 h 213.35 V 384 H 256 Z M 554.65 298.65 H 768 V 384 h -213.35 Z M 256 640 h 512 v 85.3504 H 256 Z"  /><path d="M 0 0 h 1024 v 1024 H 0 Z"  fill-opacity="0"/><path d="M 0 0 h 1024 v 1024 H 0 Z"  fill-opacity="0"/></svg>
