<?xml version="1.0" standalone="no"?><!DOCTYPE svg PUBLIC "-//W3C//DTD SVG 1.1//EN" "http://www.w3.org/Graphics/SVG/1.1/DTD/svg11.dtd"><svg class="icon" viewBox="0 0 1024 1024" version="1.1" xmlns="http://www.w3.org/2000/svg"><path d="M 748.8 582.4 h 83.2 a 32 32 0 0 1 32 32 v 166.4 a 32 32 0 0 1 -32 32 H 192 a 32 32 0 0 1 -32 -32 V 614.4 a 32 32 0 0 1 32 -32 h 89.6 V 240 a 22.4 22.4 0 0 1 44.8 0 V 582.4 h 377.6 V 240 a 22.4 22.4 0 0 1 44.8 0 V 582.4 Z m -492.8 64 a 32 32 0 0 0 -32 32 v 38.4 a 32 32 0 0 0 32 32 h 512 a 32 32 0 0 0 32 -32 v -38.4 a 32 32 0 0 0 -32 -32 H 256 Z m 25.6 19.2 h 134.4 a 32 32 0 0 1 0 64 H 281.6 a 32 32 0 0 1 0 -64 Z m 441.6 0 a 32 32 0 1 1 0 64 a 32 32 0 0 1 0 -64 Z"  /><path d="M 748.8 582.4 h 83.2 a 32 32 0 0 1 32 32 v 166.4 a 32 32 0 0 1 -32 32 H 192 a 32 32 0 0 1 -32 -32 V 614.4 a 32 32 0 0 1 32 -32 h 89.6 V 240 a 22.4 22.4 0 0 1 44.8 0 V 582.4 h 377.6 V 240 a 22.4 22.4 0 0 1 44.8 0 V 582.4 Z m -492.8 64 a 32 32 0 0 0 -32 32 v 38.4 a 32 32 0 0 0 32 32 h 512 a 32 32 0 0 0 32 -32 v -38.4 a 32 32 0 0 0 -32 -32 H 256 Z m 25.6 19.2 h 134.4 a 32 32 0 0 1 0 64 H 281.6 a 32 32 0 0 1 0 -64 Z m 441.6 0 a 32 32 0 1 1 0 64 a 32 32 0 0 1 0 -64 Z" /></svg>
