<?xml version="1.0" standalone="no"?><!DOCTYPE svg PUBLIC "-//W3C//DTD SVG 1.1//EN" "http://www.w3.org/Graphics/SVG/1.1/DTD/svg11.dtd"><svg class="icon" viewBox="0 0 1024 1024" version="1.1" xmlns="http://www.w3.org/2000/svg"><path d="M 516.8 441.3 h 324.6 c 11.3 0 20.5 9.2 20.5 20.5 s -9.2 20.5 -20.5 20.5 H 516.8 c -11.3 0 -20.5 -9.2 -20.5 -20.5 s 9.2 -20.5 20.5 -20.5 Z M 516.8 605.1 h 324.6 c 11.3 0 20.5 9.2 20.5 20.5 s -9.2 20.5 -20.5 20.5 H 516.8 c -11.3 0 -20.5 -9.2 -20.5 -20.5 c 0 -11.4 9.2 -20.5 20.5 -20.5 Z M 516.8 768.8 h 324.6 c 11.3 0 20.5 9.2 20.5 20.5 s -9.2 20.5 -20.5 20.5 H 516.8 c -11.3 0 -20.5 -9.2 -20.5 -20.5 s 9.2 -20.5 20.5 -20.5 Z M 411.3 504.3 H 206.6 c -12.2 0 -22 -9.9 -22 -22 V 277.6 c 0 -12.1 9.8 -22 22 -22 h 204.7 c 12.2 0 22 9.9 22 22 v 204.6 c 0 12.2 -9.8 22.1 -22 22.1 Z m -182.7 -44 h 160.7 V 299.6 H 228.6 v 160.7 Z M 411.3 831.7 H 206.6 c -12.2 0 -22 -9.9 -22 -22 V 605.1 c 0 -12.1 9.8 -22 22 -22 h 204.7 c 12.2 0 22 9.9 22 22 v 204.7 c 0 12.1 -9.8 21.9 -22 21.9 Z m -182.7 -44 h 160.7 V 627.1 H 228.6 v 160.6 Z M 516.8 277.6 h 324.6 c 11.3 0 20.5 9.2 20.5 20.5 s -9.2 20.5 -20.5 20.5 H 516.8 c -11.3 0 -20.5 -9.2 -20.5 -20.5 s 9.2 -20.5 20.5 -20.5 Z"  /><path d="M 516.8 441.3 h 324.6 c 11.3 0 20.5 9.2 20.5 20.5 s -9.2 20.5 -20.5 20.5 H 516.8 c -11.3 0 -20.5 -9.2 -20.5 -20.5 s 9.2 -20.5 20.5 -20.5 Z M 516.8 605.1 h 324.6 c 11.3 0 20.5 9.2 20.5 20.5 s -9.2 20.5 -20.5 20.5 H 516.8 c -11.3 0 -20.5 -9.2 -20.5 -20.5 c 0 -11.4 9.2 -20.5 20.5 -20.5 Z M 516.8 768.8 h 324.6 c 11.3 0 20.5 9.2 20.5 20.5 s -9.2 20.5 -20.5 20.5 H 516.8 c -11.3 0 -20.5 -9.2 -20.5 -20.5 s 9.2 -20.5 20.5 -20.5 Z M 411.3 504.3 H 206.6 c -12.2 0 -22 -9.9 -22 -22 V 277.6 c 0 -12.1 9.8 -22 22 -22 h 204.7 c 12.2 0 22 9.9 22 22 v 204.6 c 0 12.2 -9.8 22.1 -22 22.1 Z m -182.7 -44 h 160.7 V 299.6 H 228.6 v 160.7 Z M 411.3 831.7 H 206.6 c -12.2 0 -22 -9.9 -22 -22 V 605.1 c 0 -12.1 9.8 -22 22 -22 h 204.7 c 12.2 0 22 9.9 22 22 v 204.7 c 0 12.1 -9.8 21.9 -22 21.9 Z m -182.7 -44 h 160.7 V 627.1 H 228.6 v 160.6 Z M 516.8 277.6 h 324.6 c 11.3 0 20.5 9.2 20.5 20.5 s -9.2 20.5 -20.5 20.5 H 516.8 c -11.3 0 -20.5 -9.2 -20.5 -20.5 s 9.2 -20.5 20.5 -20.5 Z"  /></svg>
